<svg width="64" height="64" viewBox="0 0 64 64" fill="none" xmlns="http://www.w3.org/2000/svg">
<rect width="64" height="64" rx="20" fill="#F8F9FB"/>
<path d="M10.3636 48H24H37.6364L39 46.5V45L37.6364 43.5H32.8636L30.1364 41H24H17.8636L15.1364 43.5H10.3636L9 45V46.5L10.3636 48Z" fill="#434C6D"/>
<path fill-rule="evenodd" clip-rule="evenodd" d="M27.8364 34.3765L32.5699 28.3456L33.1841 27.5631L34.7574 28.7979C36.4153 30.7348 39.8097 34.6703 40.1243 34.9172C40.1813 34.9619 40.4507 35.1601 40.8725 35.4703L40.8726 35.4703L40.8726 35.4704C43.3652 37.3036 51.1787 43.0501 51.9239 44.1785C52.6209 45.2341 54.6672 45.2723 55.6032 45.1595L56.2206 44.3729L33.8015 26.7765L33.8015 26.7764L56.2206 44.3729L56.8381 43.5862C56.7253 42.6502 56.2019 40.6716 55.011 40.2453C53.7378 39.7896 46.2993 33.5651 43.9265 31.5794C43.5249 31.2434 43.2684 31.0287 43.2114 30.984C42.8968 30.7371 38.2675 28.3749 35.9922 27.2247L34.419 25.9898L34.9367 25.3302L39.6702 19.2993L39.3266 16.5931L33.7276 12.1985L31.0172 12.5077L25.1003 20.0463L19.1834 27.5849L19.527 30.2911L25.126 34.6857L27.8364 34.3765Z" fill="#434C6D"/>
</svg>
